<svg id="visual" viewBox="0 0 900 600" width="900" height="600" xmlns="http://www.w3.org/2000/svg" xmlns:xlink="http://www.w3.org/1999/xlink" version="1.1"><rect x="0" y="0" width="900" height="600" fill="#001220"></rect><defs><linearGradient id="grad1_0" x1="33.3%" y1="0%" x2="100%" y2="100%"><stop offset="20%" stop-color="#001220" stop-opacity="1"></stop><stop offset="80%" stop-color="#001220" stop-opacity="1"></stop></linearGradient></defs><defs><linearGradient id="grad2_0" x1="0%" y1="0%" x2="66.7%" y2="100%"><stop offset="20%" stop-color="#001220" stop-opacity="1"></stop><stop offset="80%" stop-color="#001220" stop-opacity="1"></stop></linearGradient></defs><g transform="translate(900, 0)"><path d="M0 486.7C-70 486.6 -140 486.5 -186.3 449.7C-232.6 412.9 -255.1 339.5 -289.2 289.2C-323.3 238.9 -368.9 211.6 -403.7 167.2C-438.6 122.9 -462.7 61.4 -486.7 0L0 0Z" fill="#FBAE3C"></path></g><g transform="translate(0, 600)"><path d="M0 -486.7C62.2 -465.4 124.3 -444.1 169.9 -410.2C215.5 -376.3 244.5 -329.9 294.2 -294.2C343.8 -258.5 414.2 -233.5 449.7 -186.3C485.2 -139 486 -69.5 486.7 0L0 0Z" fill="#FBAE3C"></path></g></svg>